<?xml version="1.0" encoding="utf-8"?>
<!-- Generator: Adobe Illustrator 22.1.0, SVG Export Plug-In . SVG Version: 6.00 Build 0)  -->
<svg version="1.1" id="Layer_1" xmlns="http://www.w3.org/2000/svg" xmlns:xlink="http://www.w3.org/1999/xlink" x="0px" y="0px"
	 viewBox="0 0 67 72" style="enable-background:new 0 0 67 72;" xml:space="preserve">
<style type="text/css">
	.st0{fill:#034C87;}
	.st1{fill:#0071BB;}
	.st2{fill:#FFFFFF;}
</style>
<g>
	<g>
		<path class="st0" d="M32.4,30.2V0L0,10.8C0,18,0.8,24.5,2.1,30.2H32.4z"/>
		<path class="st1" d="M67,10.8L34.6,0v30.2h30.3C66.2,24.5,67,18,67,10.8z"/>
		<path class="st0" d="M34.6,32.4V72c0,0,21.9-10.3,29.7-39.6H34.6z"/>
		<path class="st1" d="M32.4,32.4H2.7C10.5,61.7,32.4,72,32.4,72V32.4z"/>
	</g>
	<g id="Cross_5_">
		<path class="st2" d="M39.9,44.8v-2.2h4.9v-5.9h2.3v5.9H52v2.2h-4.9v12h-2.3v-12H39.9z"/>
	</g>
	<g id="Dove_5_">
		<path class="st2" d="M26.1,36.4c0.1,2.1,0.8,5.3,1.2,7.6c0.2,1-0.3,2-0.5,2.3c-0.1,0.1-0.2,0.1-0.3,0.2c-0.1,0.1-0.2,0.2-0.2,0.2
			l0,0c0,0-0.1,0.1-0.2,0.3l0,0l-1.4-2.1L24,43.7c-0.1-0.1-0.2-0.5-0.5-0.9c-0.2-0.3-0.5-0.5-0.7-0.7C23.3,40.4,24.4,38.5,26.1,36.4
			z M21.4,42.2c0.1,0,0.3,0.1,0.4,0.2c0.1,0,0.2,0.1,0.3,0.1c0.1,0.1,0.2,0.1,0.2,0.2l0.1,0.1c0.6,0.5,0.9,1.2,0.9,1.2l0.7,1.2
			l1.4,2.2l0.1,0.2l0.1,0.1l0.1,0.2l0,0l0.1,0.1c0,0,0,0,0.1,0l0,0l0.1-0.1c0,0,0,0,0.1,0c0.4-0.3,0.7-0.7,0.7-0.7l0,0
			c0.1,0,0.2-0.2,0.5-0.2c0.2,0,0.5,0,0.8,0.4c0.2,0,0.9,0.2,0.9,0.2c-0.3,0.1-0.5,0.2-0.8,0.4s-0.8,0.7-0.8,1.1
			c0,0.1-0.5,2.5-3.3,3.4c-0.1,0-0.2,0.1-0.2,0.1c-0.6,0.2-1.4,0.3-2.2,0.3c-0.8,0.1-1.4,0.3-1.4,0.3l-1,0.7
			c-2.1,0.8-4.2-0.7-4.2-0.7l4.2-1.2l1.3-0.9l0.2-0.2c0.1,0,0.1-0.1,0.2-0.1c0,0,0.1,0,0.1-0.1c0.1,0,0.1-0.1,0.2-0.1
			c0.1-0.1,0.2-0.1,0.3-0.2c0,0,0,0,0.1,0c0,0,0.1,0,0.1-0.1c0,0,0,0-0.1,0h-0.1c-0.1,0-0.1-0.1-0.2-0.1c0,0-0.1,0-0.1-0.1L21.2,50
			l-0.1-0.1c-0.1-0.1-0.1-0.1-0.2-0.2l0.5-0.2l0.3-0.1c-0.1,0-0.2,0-0.3,0c-1.8-0.2-5.2-3.1-7.4-9.6C15.8,40.6,19.1,41.5,21.4,42.2z
			"/>
	</g>
	<g id="Lamp_5_">
		<g>
			<path class="st2" d="M54.1,17.6c-0.3-0.7-1.7-1.7-3.2-1.8l0.1-0.3h0.5v-0.6h-0.6l-0.4-0.6h-0.2l-0.4,0.6h-0.6v0.6h0.4l0.1,0.3
				c-1.5,0.2-2.9,1.1-3.2,1.8l0,0H54.1L54.1,17.6z"/>
		</g>
		<g>
			<path class="st2" d="M40.7,14.4c0.3-0.2,1.1-0.7,0.9-1.8c-0.1-0.2-0.2-0.5-0.4-0.7c-0.2-0.3-0.4-0.5-0.5-0.8
				c-0.2-0.4-0.4-0.9-0.2-1.4c-0.5,0.3-0.8,1-0.7,1.5c0.1,0.6,0.3,1.1,0.4,1.6c0.1,0.5,0,1-0.4,1.4c-0.2,0.2-0.5,0.2-0.6,0
				c-0.2-0.2-0.1-0.5,0.1-0.8c0.1-0.1,0.1-0.7-0.2-1.2c0.1,0.3,0,0.6-0.2,0.8c-0.1,0.2-0.2,0.3-0.3,0.5s-0.2,0.3-0.2,0.6
				c-0.1,0.8,0.9,1.6,1.8,1.9C39.7,15.4,40.1,14.8,40.7,14.4z"/>
		</g>
		<g>
			<path class="st2" d="M57.3,15.5l0.7,2.1h0.8c-0.1,0.2-0.3,0.5-0.5,0.8c-1,0-2.5,0-4.4,0s-4.3,0-7.1,0c-0.6,0-1.2,0-1.9,0
				c-1.2-0.1-2.5-0.5-3.2-1.1H39c0,0,0.6,2.3,4.2,3.4c1.3,1.5,3.5,2.6,5.9,2.8l0,0c-0.8,0.8-0.8,0.9-3.1,2.5h8.6
				c-2.4-1.6-2.4-1.7-3.1-2.5c2.1-0.2,3.9-1,5.2-2.2c2.5-1.1,5.2-3.1,6.2-6.1L57.3,15.5z M58.2,19.6c0,0,1.5-1.7,1.9-2.8h-1.3
				l-0.2-0.7l3.1-0.2C60.9,17.4,59.8,18.7,58.2,19.6z"/>
		</g>
	</g>
	<g id="Bible_5_">
		<path class="st2" d="M17.7,12.4c0.5-0.2,0.9-0.3,1.3-0.5v7.7l1.1-2.5l1.1,2.5v-7.9c1.6,0.1,2.6,0.8,3.3,1.5v10.7
			c-2.7-0.2-3.9-1.1-6.8-0.7V12.4z M10.1,13.2c1.2-1.1,3.3-2.4,6.8-0.8v10.9c-3-0.4-4.1,0.5-6.8,0.7C10.1,24,10.1,13.2,10.1,13.2z
			 M8.7,15l0.6-0.4v9.9c0.2,0,0.3,0,0.4,0c2.9-0.2,4.3-1.2,7.5-0.6c3.2-0.6,4.5,0.4,7.5,0.6c0.1,0,0.2,0,0.4,0v-9.9l0.6,0.4v10.3
			c-3.7,0-5-1.1-8.6-0.5c-3.6-0.6-4.8,0.5-8.6,0.5V15H8.7z"/>
	</g>
</g>
</svg>
